<svg width="48" height="48" viewBox="0 0 48 48" fill="none" xmlns="http://www.w3.org/2000/svg">
<path d="M21.75 1.29904C23.1423 0.49519 24.8577 0.49519 26.25 1.29904L42.5346 10.701C43.9269 11.5048 44.7846 12.9904 44.7846 14.5981V33.4019C44.7846 35.0096 43.9269 36.4952 42.5346 37.299L26.25 46.701C24.8577 47.5048 23.1423 47.5048 21.75 46.701L5.46539 37.299C4.07309 36.4952 3.21539 35.0096 3.21539 33.4019V14.5981C3.21539 12.9904 4.07309 11.5048 5.46539 10.701L21.75 1.29904Z" fill="#418BEE"/>
<path d="M32.3333 14.4583C32.5174 14.4583 32.6667 14.6076 32.6667 14.7916V31.806C32.6667 31.9308 32.597 32.0451 32.4861 32.1023L32.0529 32.3257L24.1522 36.3802C24.0566 36.4292 23.9433 36.4292 23.8478 36.3802L15.9471 32.3257L15.5139 32.1023C15.403 32.0451 15.3333 31.9308 15.3333 31.806V14.7916C15.3333 14.6076 15.4826 14.4583 15.6667 14.4583H32.3333ZM17.5942 30.4246C17.5942 30.5496 17.6641 30.664 17.7753 30.7211L23.8478 33.8376C23.9433 33.8866 24.0567 33.8866 24.1522 33.8376L30.2247 30.7211C30.3359 30.664 30.4058 30.5496 30.4058 30.4246V17.053C30.4058 16.8689 30.2566 16.7197 30.0725 16.7197H17.9275C17.7434 16.7197 17.5942 16.8689 17.5942 17.053V30.4246Z" fill="#F5F5F5" fill-opacity="0.9"/>
</svg>
