<svg width="48" height="48" viewBox="0 0 48 48" fill="none" xmlns="http://www.w3.org/2000/svg">
<g filter="url(#filter0_iiii_1_4506)">
<path d="M21.75 1.29904C23.1423 0.49519 24.8577 0.49519 26.25 1.29904L42.5346 10.701C43.9269 11.5048 44.7846 12.9904 44.7846 14.5981V33.4019C44.7846 35.0096 43.9269 36.4952 42.5346 37.299L26.25 46.701C24.8577 47.5048 23.1423 47.5048 21.75 46.701L5.46539 37.299C4.07309 36.4952 3.21539 35.0096 3.21539 33.4019V14.5981C3.21539 12.9904 4.07309 11.5048 5.46539 10.701L21.75 1.29904Z" fill="url(#paint0_linear_1_4506)"/>
</g>
<path d="M20.5 19C20.5 20.1046 19.6046 21 18.5 21C17.3954 21 16.5 20.1046 16.5 19C16.5 17.8954 17.3954 17 18.5 17C19.6046 17 20.5 17.8954 20.5 19ZM14.5 19C14.5 21.2091 16.2909 23 18.5 23C20.7091 23 22.5 21.2091 22.5 19C22.5 16.7909 20.7091 15 18.5 15C16.2909 15 14.5 16.7909 14.5 19ZM21 28.5C21 27.1193 19.8807 26 18.5 26C17.1193 26 16 27.1193 16 28.5V30.6667C16 30.8508 16.1492 31 16.3333 31H20.6667C20.8508 31 21 30.8508 21 30.6667V28.5ZM23 32.6667C23 32.8508 22.8508 33 22.6667 33H14.3333C14.1492 33 14 32.8508 14 32.6667V28.5C14 26.0147 16.0147 24 18.5 24C20.9853 24 23 26.0147 23 28.5V32.6667ZM31.5 19C31.5 20.1046 30.6046 21 29.5 21C28.3954 21 27.5 20.1046 27.5 19C27.5 17.8954 28.3954 17 29.5 17C30.6046 17 31.5 17.8954 31.5 19ZM25.5 19C25.5 21.2091 27.2909 23 29.5 23C31.7091 23 33.5 21.2091 33.5 19C33.5 16.7909 31.7091 15 29.5 15C27.2909 15 25.5 16.7909 25.5 19ZM32 28.5C32 27.1193 30.8807 26 29.5 26C28.1193 26 27 27.1193 27 28.5V30.6667C27 30.8508 27.1492 31 27.3333 31H31.6667C31.8508 31 32 30.8508 32 30.6667V28.5ZM25 31V28.5C25 26.0147 27.0147 24 29.5 24C31.9853 24 34 26.0147 34 28.5V32.6667C34 32.8508 33.8508 33 33.6667 33H25.3333C25.1492 33 25 32.8508 25 32.6667V31Z" fill="#F5F5F5" fill-opacity="0.9"/>
<defs>
<filter id="filter0_iiii_1_4506" x="2.84039" y="0.321167" width="42.3192" height="47.3577" filterUnits="userSpaceOnUse" color-interpolation-filters="sRGB">
<feFlood flood-opacity="0" result="BackgroundImageFix"/>
<feBlend mode="normal" in="SourceGraphic" in2="BackgroundImageFix" result="shape"/>
<feColorMatrix in="SourceAlpha" type="matrix" values="0 0 0 0 0 0 0 0 0 0 0 0 0 0 0 0 0 0 127 0" result="hardAlpha"/>
<feOffset dx="-0.375" dy="-0.375"/>
<feGaussianBlur stdDeviation="0.375"/>
<feComposite in2="hardAlpha" operator="arithmetic" k2="-1" k3="1"/>
<feColorMatrix type="matrix" values="0 0 0 0 1 0 0 0 0 1 0 0 0 0 1 0 0 0 0.15 0"/>
<feBlend mode="lighten" in2="shape" result="effect1_innerShadow_1_4506"/>
<feColorMatrix in="SourceAlpha" type="matrix" values="0 0 0 0 0 0 0 0 0 0 0 0 0 0 0 0 0 0 127 0" result="hardAlpha"/>
<feOffset dx="-0.1875" dy="-0.1875"/>
<feGaussianBlur stdDeviation="0.375"/>
<feComposite in2="hardAlpha" operator="arithmetic" k2="-1" k3="1"/>
<feColorMatrix type="matrix" values="0 0 0 0 0 0 0 0 0 0 0 0 0 0 0 0 0 0 0.25 0"/>
<feBlend mode="overlay" in2="effect1_innerShadow_1_4506" result="effect2_innerShadow_1_4506"/>
<feColorMatrix in="SourceAlpha" type="matrix" values="0 0 0 0 0 0 0 0 0 0 0 0 0 0 0 0 0 0 127 0" result="hardAlpha"/>
<feOffset dx="0.375" dy="0.375"/>
<feGaussianBlur stdDeviation="0.375"/>
<feComposite in2="hardAlpha" operator="arithmetic" k2="-1" k3="1"/>
<feColorMatrix type="matrix" values="0 0 0 0 1 0 0 0 0 1 0 0 0 0 1 0 0 0 0.5 0"/>
<feBlend mode="lighten" in2="effect2_innerShadow_1_4506" result="effect3_innerShadow_1_4506"/>
<feColorMatrix in="SourceAlpha" type="matrix" values="0 0 0 0 0 0 0 0 0 0 0 0 0 0 0 0 0 0 127 0" result="hardAlpha"/>
<feOffset dx="0.1875" dy="0.1875"/>
<feGaussianBlur stdDeviation="0.75"/>
<feComposite in2="hardAlpha" operator="arithmetic" k2="-1" k3="1"/>
<feColorMatrix type="matrix" values="0 0 0 0 0 0 0 0 0 0 0 0 0 0 0 0 0 0 0.25 0"/>
<feBlend mode="overlay" in2="effect3_innerShadow_1_4506" result="effect4_innerShadow_1_4506"/>
</filter>
<linearGradient id="paint0_linear_1_4506" x1="0.06427" y1="1.9154e-09" x2="48.0643" y2="48" gradientUnits="userSpaceOnUse">
<stop offset="0.15" stop-color="#A77FEE"/>
<stop offset="0.5" stop-color="#7F52E1"/>
<stop offset="0.85" stop-color="#5F33CA"/>
</linearGradient>
</defs>
</svg>
