<?xml version="1.0" encoding="utf-8"?>
<!-- Generator: Adobe Illustrator 30.1.0, SVG Export Plug-In . SVG Version: 9.03 Build 0)  -->
<svg version="1.1" id="Layer_1" xmlns="http://www.w3.org/2000/svg" xmlns:xlink="http://www.w3.org/1999/xlink" x="0px" y="0px"
	 viewBox="0 0 595.28 419.53" style="enable-background:new 0 0 595.28 419.53;" xml:space="preserve">
<rect x="-12.21" y="-8.5" style="fill:#FFFFFF;" width="612.28" height="436.54"/>
<g>
	<path d="M397.98,243.63v-6.28h7.17l2.69-6.54l-13.82-31.49h8.28l9.49,22.42h0.26l9.18-22.42h7.96l-13.55,31.65l-5.31,12.66h-12.36
		H397.98z"/>
	<path d="M207.41,210.13c0-13.83,8.72-22.96,22.42-22.96c11.51,0,19.01,6.2,19.76,15.19h-7.36c-1.29-5.38-5.31-8.45-9.2-8.45h-6.2
		c-6.34,0-11.99,7.15-11.99,16.08s5.79,15.94,12.54,15.94h4.57c5.04,0,8.99-3,10.63-6.2v-5.66h-10.97v-6.06h17.78v13.9
		c-2.73,5.31-8.86,10.77-19.62,10.77c-13.56,0-22.35-8.31-22.35-22.55L207.41,210.13z"/>
	<path d="M254.71,215.58c0-10.42,6.95-17.17,17.1-17.17c9.61,0,16.01,5.86,16.01,17.51v1.64h-25.96c0.68,4.97,3.82,8.86,8.52,8.86
		h2.93c3.68,0,6.06-2.25,6.81-5.11h7.09c-0.89,6.54-6.27,11.38-15.6,11.38c-10.77,0-16.9-7.22-16.9-17.1L254.71,215.58z
		 M280.6,212.11c-0.34-4.57-3.54-7.43-7.02-7.43h-3.75c-3.75,0-6.75,2.93-7.7,7.43h18.46H280.6z"/>
	<path d="M292.94,198.41h17.85c8.04,0,12.74,4.57,12.74,12.95v20.37h-7.15v-19.15c0-4.7-2.38-7.49-5.79-7.49H300.1v26.64h-7.15
		v-33.32H292.94z"/>
	<path d="M329.56,188.12h7.36v36.86h16.26v6.75h-23.62V188.12z"/>
	<path d="M355.22,215.51c0-10.08,6.54-17.1,15.88-17.1c4.84,0,8.79,2.25,10.9,4.84v-3.88h7.02v32.36H382v-4.57
		c-2.45,3.13-6,5.52-11.11,5.52C361.49,232.68,355.22,225.66,355.22,215.51L355.22,215.51z M370.42,226.28h4.29
		c4.02,0,7.09-3.41,7.09-7.84v-5.66c0-4.29-2.86-7.97-7.09-7.97h-4.29c-4.43,0-8.04,4.77-8.04,10.7S365.99,226.28,370.42,226.28z"/>
	<path d="M429.21,215.58c0-10.42,6.95-17.17,17.1-17.17c9.61,0,16.01,5.86,16.01,17.51v1.64h-25.96c0.68,4.97,3.82,8.86,8.52,8.86
		h2.93c3.68,0,6.06-2.25,6.81-5.11h7.09c-0.89,6.54-6.27,11.38-15.6,11.38c-10.77,0-16.9-7.22-16.9-17.1V215.58z M455.1,212.11
		c-0.34-4.57-3.54-7.43-7.02-7.43h-3.75c-3.75,0-6.75,2.93-7.7,7.43h18.46H455.1z"/>
	<path d="M467.44,199.37h19.15v6.88H474.6v25.48h-7.15v-32.36H467.44z"/>
</g>
<polygon points="145.53,196.15 128.99,230.92 144.55,238.7 101.27,255.73 145.53,163.8 "/>
<polygon points="154.77,196.15 171.31,230.92 155.74,238.7 199.03,255.73 154.77,163.8 "/>
<polygon points="149.91,207.58 159.59,226.74 149.91,231.49 140.73,226.72 "/>
</svg>
